<?xml version="1.0" encoding="UTF-8" standalone="no"?>
<!-- Created with Inkscape (http://www.inkscape.org/) -->

<svg
   width="128.3163mm"
   height="134.65485mm"
   viewBox="0 0 128.3163 134.65485"
   version="1.1"
   id="svg1"
   xml:space="preserve"
   xmlns="http://www.w3.org/2000/svg"
   xmlns:svg="http://www.w3.org/2000/svg"><defs
     id="defs1" /><g
     id="layer1"
     transform="translate(-52.148264,-82.085622)"><path
       id="path2"
       style="fill:#000000"
       d="m 121.03416,82.087 c -1.77297,-0.01682 -3.62022,0.12039 -5.17126,0.414445 -9.41989,1.78586 -16.866067,9.097496 -16.287897,15.993856 0.24749,2.952039 1.239557,4.728099 3.542417,6.340699 l 0.56689,0.39687 -0.49609,3.3073 c -2.71314,18.08398 0.40795,31.3017 8.3106,35.19216 0.96515,0.47514 1.75493,0.90112 1.75493,0.94672 0,0.0456 -0.12403,0.66088 -0.27543,1.36684 l -0.27492,1.28364 -2.75332,0.30747 c -1.51414,0.1692 -3.74159,0.55737 -4.95008,0.863 -10.39703,2.6294 -17.886186,8.32596 -24.947836,18.9761 -0.69954,1.05503 -1.284145,1.91855 -1.299145,1.91875 -0.015,2e-4 0.01076,-1.84678 0.05736,-4.10414 l 0.08475,-4.10415 -0.826823,-0.16536 c -0.6405,-0.1281 -0.782259,-0.26143 -0.629419,-0.59221 0.10852,-0.23488 0.784857,-2.15377 1.503267,-4.26382 0.98613,-2.89638 1.346422,-4.38712 1.470712,-6.08387 l 0.164847,-2.24741 6.058545,-1.37459 c 3.33216,-0.75608 6.412334,-1.52113 6.844544,-1.70016 1.03169,-0.42734 1.779253,-1.69502 1.780253,-3.01893 5.5e-4,-0.58504 -0.719423,-4.21646 -1.599903,-8.0698 -0.88049,-3.85335 -2.488375,-11.05441 -3.573425,-16.00212 -1.25757,-5.73437 -2.149181,-9.23564 -2.459281,-9.65729 -0.26756,-0.3638 -0.91795,-0.80618 -1.44539,-0.98289 -0.87008,-0.29152 -1.628479,-0.1624 -8.177279,1.39165 -9.1348,2.16771 -9.770262,2.35577 -10.438122,3.0887 -1.44371,1.58437 -1.447861,1.47086 0.346749,9.27127 l 1.203027,5.22759 -1.347205,1.47381 c -2.64829,2.89764 -4.140257,6.25452 -4.940267,11.1156 -0.34852,2.11771 -0.400171,3.73498 -0.271301,8.44031 0.18031,6.58299 -0.09102,8.99583 -1.011308,8.99583 -0.39549,0 -0.739116,0.56292 -1.533756,2.51355 -3.48678,8.55914 -6.649585,21.00727 -7.630025,30.0302 -1.02427,9.42623 1.327405,17.07265 6.430615,20.90881 7.77766,5.84657 19.383162,1.84648 27.846362,-9.59787 0.99553,-1.3462 1.824448,-2.41775 1.841748,-2.38125 0.01727,0.0365 -0.03355,4.11427 -0.112654,9.06198 -0.0792,4.94771 -0.09786,9.15043 -0.04186,9.33948 0.05604,0.18903 0.2954,0.307 0.53175,0.262 0.54964,-0.10461 0.759601,-2.77945 0.798401,-10.16734 0.0636,-12.09598 1.320495,-25.77619 3.132625,-34.09456 0.78752,-3.61502 0.873922,-4.66326 0.397392,-4.82657 -0.49445,-0.16945 -0.988745,1.24196 -1.736845,4.95887 -1.197,5.94732 -2.559017,17.00791 -2.559017,20.78322 0,1.24241 -0.157351,1.62332 -1.542541,3.72794 -5.55067,8.43353 -11.778981,13.19299 -18.558041,14.18105 -5.58038,0.81335 -10.59232,-1.9481 -13.18059,-7.26209 -1.75233,-3.59771 -2.037334,-5.13482 -2.029334,-10.92492 0.0085,-5.88623 0.631031,-10.04648 2.772441,-18.52083 1.76961,-7.00301 4.928292,-16.15098 5.675622,-16.43776 0.26947,-0.1034 10.36838,2.86004 13.89786,4.07831 l 1.455208,0.50229 0.08888,2.48926 c 0.09778,2.74253 -0.377108,13.29452 -0.766878,17.04082 -0.64227,6.1729 -0.642627,6.21771 -0.05168,6.21771 0.39969,0 0.577938,-0.22172 0.691948,-0.8599 0.35166,-1.96841 0.705072,-5.64882 0.981852,-10.22935 0.23755,-3.93144 0.386382,-5.00381 0.771012,-5.55625 0.26214,-0.3765 1.275666,-1.91553 2.252576,-3.41995 5.928,-9.12892 13.457581,-15.10299 22.222419,-17.63199 2.72442,-0.7861 6.34674,-1.4609 7.84344,-1.4609 H 112.46 v 1.53944 c 0,4.31033 2.49049,7.28047 7.25899,8.65684 2.09257,0.604 5.94568,0.42424 8.35143,-0.38964 4.12066,-1.39403 8.889,-5.34524 10.46913,-8.67492 0.42651,-0.89874 0.86344,-1.64045 0.97048,-1.64745 0.10705,-0.007 1.74416,0.51764 3.63802,1.16634 1.89387,0.6487 3.44159,1.09518 3.43959,0.99219 -0.0186,-0.96552 -0.41388,-1.38423 -1.67794,-1.77767 -0.74875,-0.23304 -2.57853,-0.86337 -4.06641,-1.40095 l -2.70527,-0.97772 -0.43149,-1.85208 c -0.62189,-2.66957 -0.74787,-5.8243 -0.40153,-10.05417 0.46021,-5.62055 0.37953,-5.37857 1.74201,-5.225 2.20284,0.24829 5.59087,-2.03569 6.9293,-4.67104 0.26537,-0.52253 1.0952,-1.72422 1.84381,-2.67063 3.76889,-4.76471 5.62262,-10.55531 5.31699,-16.60933 -0.25467,-5.04474 -1.97576,-8.998184 -5.26996,-12.106234 -2.66226,-2.51184 -5.86391,-3.829224 -9.30693,-3.829224 -1.25219,0 -1.48044,-0.09468 -2.30167,-0.95498 -2.33743,-2.44859 -6.33812,-4.611423 -10.4991,-5.675623 -1.25381,-0.32066 -2.95232,-0.491155 -4.72529,-0.507979 z M 76.311824,93.317839 c -1.90951,0.02674 -4.011949,0.201039 -5.126819,0.506429 -3.59063,0.98355 -7.096579,3.200997 -9.325529,5.898352 -1.01909,1.23322 -1.122564,1.4566 -0.817004,1.76216 0.40695,0.40695 0.926068,0.0845 2.494938,-1.54926 2.14992,-2.238918 4.049019,-3.478534 6.841959,-4.465874 2.10847,-0.74536 2.527058,-0.80119 6.213058,-0.82579 3.98617,-0.02662 4.605834,-0.185522 3.688664,-0.946712 -0.34336,-0.28496 -2.059757,-0.406047 -3.969267,-0.379305 z m -0.353467,6.226491 c -3.65402,0 -7.030157,1.45953 -8.733317,3.77548 -0.8666,1.17839 -0.991306,1.66883 -0.471806,1.85519 0.44832,0.16081 0.565361,0.0768 1.961121,-1.41542 0.66788,-0.71402 1.88367,-1.62738 2.70216,-2.02933 1.37019,-0.6729 1.739965,-0.73094 4.661215,-0.73794 2.78679,-0.006 3.183266,-0.0623 3.260266,-0.46199 0.12801,-0.66473 -0.972549,-0.98599 -3.379639,-0.98599 z m 45.220493,1.77612 c 0.2993,-0.0514 0.53622,0.3772 1.37511,1.97714 1.3461,2.56726 4.17441,5.59783 6.08645,6.52208 0.67729,0.3274 1.94598,0.72847 2.81947,0.89091 1.39929,0.26023 1.60504,0.37754 1.72703,0.98753 0.28435,1.42175 1.27032,3.62892 2.1642,4.84363 l 0.92346,1.25471 1.25574,-1.29811 c 1.79948,-1.86097 3.84946,-2.11701 5.92264,-0.73949 3.34187,2.22052 2.46101,8.8674 -1.48105,11.17761 -1.61523,0.94658 -3.1564,1.14673 -3.8685,0.50229 -1.34557,-1.21772 -1.8474,0.89761 -2.23242,9.41183 -0.1613,3.56702 -0.11572,4.43572 0.34985,6.67195 0.2944,1.41406 0.80004,3.10208 1.12396,3.75067 l 0.58911,1.17926 -0.74517,1.27641 c -1.74625,2.99356 -5.42592,6.01931 -8.98602,7.38818 -2.31726,0.89099 -6.88467,1.14842 -8.89971,0.50177 -1.8104,-0.58098 -3.69409,-1.9918 -4.59404,-3.44061 -0.75145,-1.20968 -0.79375,-1.42722 -0.79375,-4.07727 0,-1.53965 0.15356,-3.30534 0.34107,-3.9238 l 0.34055,-1.12447 h 1.58853 c 3.6625,0 7.50095,-1.28282 10.72906,-3.58635 1.69268,-1.20787 2.37291,-2.02776 2.07843,-2.50424 -0.27587,-0.44636 -0.62202,-0.29478 -2.13166,0.93483 -2.69051,2.19146 -6.92556,3.83284 -9.88983,3.83284 -1.648,0 -4.12214,-0.67073 -5.54127,-1.50223 -2.66281,-1.5602 -5.14191,-5.18387 -6.3624,-9.2997 -1.79184,-6.04262 -2.03733,-14.68639 -0.67334,-23.7262 0.57274,-3.79584 0.41681,-3.55646 2.04277,-3.13469 1.9001,0.49288 3.46839,0.44689 5.88853,-0.17208 2.82474,-0.72245 4.72037,-1.69982 8.50852,-4.38836 0.13824,-0.0981 0.24492,-0.1689 0.34468,-0.18604 z m -11.28561,8.8129 c -2.05593,0.009 -4.57341,1.42675 -3.83905,2.16111 0.21304,0.21304 0.64895,0.13826 1.61179,-0.27595 1.78971,-0.76988 3.20739,-0.74682 4.02456,0.0656 0.74188,0.7376 1.51304,0.86321 1.73581,0.28267 0.37046,-0.96541 -1.64904,-2.24246 -3.53311,-2.23346 z m 13.41468,1.05265 c -1.29927,0 -2.85591,0.60841 -3.08508,1.20561 -0.25504,0.66465 0.40987,0.8964 1.39268,0.48576 1.69966,-0.71017 3.261,-0.35331 4.56509,1.04283 0.68641,0.73485 1.36064,0.67093 1.36064,-0.12868 0,-1.19132 -2.2977,-2.60552 -4.23333,-2.60552 z m -53.624115,2.15801 c 0.1168,-0.0736 0.284889,-0.0566 0.506429,0.0284 0.34032,0.1306 1.674259,5.32542 1.847949,7.19698 0.05297,0.57075 -0.05327,0.81001 -0.38964,0.87901 -0.57902,0.11875 -0.721455,-0.26207 -1.648995,-4.3956 -0.550448,-2.45304 -0.666144,-3.48801 -0.315743,-3.70881 z m 39.449785,2.33991 c -0.20789,0 -0.61587,0.23811 -0.90692,0.52916 -0.66233,0.66233 -0.73134,2.67051 -0.11317,3.28869 0.59359,0.59358 1.05391,0.51626 1.68155,-0.28164 0.97915,-1.24479 0.55043,-3.53621 -0.66146,-3.53621 z m 6.69985,0.84542 c -0.74548,0.21521 -3.9026,7.57198 -3.9026,9.09402 0,0.77316 1.32059,1.93989 2.67942,2.3673 1.44672,0.45507 1.95079,0.3922 1.95079,-0.24443 0,-0.36849 -0.36831,-0.61878 -1.41232,-0.95912 -0.77676,-0.25323 -1.54138,-0.5895 -1.69912,-0.74724 -0.41082,-0.41082 0.33147,-2.89949 1.82314,-6.11332 1.15607,-2.4908 1.34296,-3.62304 0.56069,-3.39721 z m 6.55412,0.47749 c -1.2864,0 -1.9608,2.3435 -1.04903,3.64526 0.54152,0.77313 1.01587,0.7425 1.68569,-0.10904 0.99791,-1.26864 0.58962,-3.53622 -0.63666,-3.53622 z m -42.613415,6.13555 c 2.223935,-0.0691 3.581693,0.60676 3.581693,1.89962 0,1.23055 -0.647911,1.70497 -3.360001,2.46135 -3.00061,0.83684 -6.083426,2.3427 -8.410856,4.10828 -1.80417,1.36863 -2.305933,2.11603 -1.775603,2.64635 0.17252,0.17253 0.951586,-0.28615 2.286166,-1.34669 3.45034,-2.74186 7.983065,-4.50995 11.825635,-4.61264 1.39926,-0.0374 1.869714,0.0557 2.315104,0.45734 1.08009,0.9739 0.419656,2.90087 -1.218014,3.5543 -0.40512,0.16163 -2.105607,0.66052 -3.779097,1.10846 -3.28614,0.87959 -8.369252,3.1349 -8.636682,3.83181 -0.37466,0.97636 0.379123,0.90815 2.700093,-0.24391 2.98308,-1.48071 6.949441,-2.81998 8.874911,-2.99672 1.33629,-0.12266 1.526109,-0.0746 1.918229,0.48524 1.16394,1.66176 -0.08915,2.92789 -4.279842,4.32428 -3.48406,1.16094 -7.140079,2.88185 -7.364409,3.46646 -0.08894,0.23178 -0.03675,0.54616 0.116272,0.69918 0.19457,0.19458 1.179596,-0.16531 3.276286,-1.19734 5.51692,-2.71555 9.065898,-3.03922 8.263578,-0.75396 -0.30951,0.88158 -2.449252,2.20203 -4.843632,2.98948 -3.30626,1.08734 -5.316471,2.44353 -5.316471,3.58686 0,0.78154 0.844657,0.70462 1.503267,-0.13694 0.35858,-0.45818 0.81693,-0.83302 1.01906,-0.83302 0.66529,0 1.007034,2.0424 0.676444,4.04419 -0.35987,2.17909 -1.709018,6.48107 -2.563668,8.17418 -0.72297,1.43224 -0.893305,1.58031 -1.455725,1.26556 -0.22692,-0.12699 -2.843719,-0.9589 -5.815149,-1.84847 -2.97142,-0.88957 -5.528894,-1.65649 -5.683374,-1.70429 -0.19582,-0.0606 -0.182388,-0.75648 0.04444,-2.29701 0.21824,-1.48223 0.277117,-3.95319 0.179317,-7.50187 -0.26878,-9.74909 1.127842,-14.57146 5.496822,-18.97972 2.33702,-2.35804 4.696482,-3.64575 7.930782,-4.32842 0.915608,-0.19326 1.75311,-0.29891 2.494422,-0.32194 z m 41.970565,7.48688 c -0.31558,0.0686 -0.75731,0.38956 -1.26246,0.94981 -2.29998,2.55085 -5.49743,2.78756 -7.58971,0.56172 -0.7751,-0.82461 -1.49568,-0.86849 -1.48518,-0.0904 0.009,0.67382 0.80543,1.52926 2.11098,2.26808 1.73065,0.97938 3.63973,0.93463 5.78207,-0.13591 1.63464,-0.81685 2.94918,-2.14836 2.94918,-2.98742 0,-0.45046 -0.1893,-0.63444 -0.50488,-0.56585 z m 43.42887,1.19424 c -1.04818,0 -1.32263,0.13381 -2.30632,1.12448 -1.28637,1.29548 -2.18495,3.43514 -2.43086,5.78776 l -0.16329,1.56269 -1.35082,-0.20257 c -2.59966,-0.38967 -5.32889,-0.18797 -6.69004,0.49455 -1.7794,0.89224 -2.3337,1.76716 -2.3337,3.68298 0,1.32149 -0.0921,1.62703 -0.59687,1.98075 -1.30548,0.9148 -1.77981,3.09306 -1.00149,4.59817 0.34892,0.67474 0.33625,0.84366 -0.13229,1.76268 -0.67791,1.32965 -0.65484,2.39777 0.0842,3.85765 0.58604,1.15757 0.58991,1.21225 0.13384,1.96319 -1.45554,2.39661 0.77647,5.65777 4.3093,6.29625 0.87064,0.15735 0.98115,0.2851 1.40456,1.62833 0.25273,0.80173 0.98696,2.22796 1.63143,3.16931 l 1.1715,1.71153 -1.3379,0.67799 -1.33842,0.678 0.16691,2.43344 c 0.54058,7.8777 1.56669,17.97435 1.87792,18.47794 0.18744,0.30325 0.83342,0.29006 1.02578,-0.0212 0.0846,-0.13682 -0.0208,-1.59535 -0.23409,-3.24115 -0.48906,-3.77451 -1.16174,-11.52928 -1.26504,-14.58464 l -0.0786,-2.33112 4.63021,-2.65824 c 2.54663,-1.46194 6.32078,-3.65709 8.38708,-4.87825 2.06631,-1.22117 3.8128,-2.22054 3.8809,-2.22054 0.18165,0 1.87763,5.23693 2.78485,8.59896 1.53607,5.69248 2.9225,13.07992 3.49177,18.60661 0.3927,3.81256 0.17189,10.94383 -0.41082,13.27154 -1.0895,4.35212 -3.52086,7.6317 -6.88331,9.28368 -1.74856,0.8591 -1.99461,0.90692 -4.63589,0.90692 -2.62828,0 -2.89317,-0.0509 -4.5868,-0.8847 -3.17877,-1.5649 -6.38823,-5.05155 -8.45943,-9.18962 -1.97369,-3.94327 -3.83793,-10.68778 -4.3093,-15.59027 -0.19367,-2.01436 -0.45196,-2.5674 -1.0852,-2.3244 -0.54021,0.2073 -0.31788,2.89809 0.61753,7.47551 0.89035,4.35684 1.92028,7.42443 3.72897,11.10682 l 1.48777,3.02875 -0.0677,4.17287 c -0.037,2.29518 0.009,4.29572 0.10129,4.44573 0.22142,0.35831 0.48912,0.34494 0.8785,-0.0444 0.21402,-0.21402 0.31729,-1.42614 0.31729,-3.71916 v -3.40186 l 1.47691,1.59525 c 1.92632,2.08065 4.22984,3.59609 6.52518,4.29328 1.50525,0.45725 2.28724,0.53626 4.21525,0.42633 2.054,-0.11712 2.63584,-0.26738 4.40128,-1.13739 6.45818,-3.18257 9.14663,-10.83618 8.00261,-22.78104 -0.87115,-9.09587 -3.98609,-22.90387 -6.48849,-28.76156 -0.43851,-1.02647 -0.57814,-1.07165 -1.7787,-0.57619 -0.51683,0.21329 -0.54936,0.0629 -1.00356,-4.59868 -0.16179,-1.66054 -0.63626,-4.81569 -1.0542,-7.01146 -1.21701,-6.39404 -1.65086,-9.868 -1.63866,-13.12065 0.006,-1.67348 -0.10932,-3.4278 -0.25683,-3.89847 -0.38886,-1.24071 -1.38703,-1.92236 -2.8143,-1.92236 z m 0.10594,1.32292 c 1.41178,0 1.68382,0.68011 1.68982,4.22609 0.003,1.67749 0.1241,3.87165 0.26923,4.87568 0.14513,1.00403 0.2255,1.86377 0.1788,1.91047 -0.0467,0.0467 -0.64995,-0.38229 -1.34048,-0.95291 -1.18003,-0.97513 -3.77234,-2.38642 -4.3832,-2.38642 -0.36901,0 -0.1181,-2.0364 0.52555,-4.26537 0.61969,-2.146 1.75275,-3.40754 3.06028,-3.40754 z m -9.49554,8.00261 c 2.08291,-0.0591 4.57353,0.43498 6.84867,1.49965 1.75972,0.82347 3.98504,2.70687 4.84829,4.10362 0.66189,1.07097 2.01717,8.2868 2.44377,13.01006 0.31372,3.4734 0.30706,3.61874 -0.19275,3.98684 -0.28528,0.2101 -2.98214,1.80445 -5.99291,3.54294 -3.01075,1.73849 -5.53962,3.16053 -5.61982,3.16053 -0.0801,0 -0.56208,-0.56555 -1.07073,-1.25678 -1.05085,-1.42804 -1.99058,-3.69515 -1.99058,-4.80177 0,-0.70133 -0.0827,-0.75643 -1.3534,-0.90692 -3.26917,-0.38719 -5.24166,-2.47025 -4.19355,-4.42867 0.37689,-0.70421 1.50764,-0.66128 4.52531,0.17208 3.18393,0.87929 3.79977,0.92284 3.79977,0.26872 0,-0.60906 -1.01369,-1.00298 -4.84932,-1.88309 -1.503,-0.34488 -2.90162,-0.7668 -3.10782,-0.93793 -0.20619,-0.17113 -0.50837,-0.75732 -0.67179,-1.30276 -0.3546,-1.18355 0.0659,-2.32219 1.03663,-2.80603 0.72278,-0.36026 3.55264,0.0972 6.04304,0.97668 0.85213,0.30095 1.88689,0.6116 2.2996,0.6904 0.66946,0.12795 0.74086,0.0759 0.66146,-0.48524 -0.0748,-0.52902 -0.42899,-0.74309 -2.23449,-1.34876 -1.1801,-0.39587 -3.19612,-0.90268 -4.47983,-1.12654 -2.65776,-0.46348 -3.29644,-0.88539 -3.29644,-2.1761 0,-1.11222 0.98304,-2.10758 2.33164,-2.36058 1.11525,-0.20922 5.0141,0.43738 7.4228,1.23094 1.75049,0.5767 2.41639,0.54577 2.41639,-0.11214 0,-0.7059 -3.07804,-1.58792 -9.45472,-2.7094 -0.77497,-0.1363 -1.0751,-1.28317 -0.57102,-2.18126 0.64404,-1.14743 2.31889,-1.75943 4.4018,-1.81849 z m -15.80369,18.32343 c -0.68264,0 -0.98299,0.59051 -0.68885,1.35702 0.09,0.23457 0.40051,0.36493 0.75034,0.31523 0.46756,-0.0664 0.59635,-0.25632 0.59635,-0.8785 0,-0.66911 -0.1033,-0.79375 -0.65784,-0.79375 z m -33.54421,0.23978 c -0.17344,-0.0457 -0.36635,-0.0464 -0.5612,0.0155 -0.54834,0.17403 -0.78084,1.15394 -0.37104,1.56373 0.31229,0.31229 1.19525,0.0625 1.50068,-0.42478 0.29763,-0.47483 -0.0481,-1.01734 -0.56844,-1.15445 z m 16.07964,6.43475 c -0.52413,0.10954 -0.83352,0.78525 -0.48576,1.4614 0.27689,0.53837 0.77345,0.59753 1.22525,0.14573 0.46621,-0.46621 0.38647,-1.21431 -0.1602,-1.50688 -0.206,-0.11025 -0.40458,-0.13677 -0.57929,-0.10025 z m -54.303143,4.88549 c -0.7867,0.11763 -1.187372,0.85576 -0.750342,1.38234 0.4334,0.52224 0.916235,0.53512 1.331185,0.0351 0.47302,-0.56996 0.08487,-1.51698 -0.580843,-1.41748 z m 75.991223,5.59914 c -0.51912,-0.12033 -1.05213,0.22034 -1.05213,0.82837 0,0.34187 0.14883,0.68299 0.33073,0.75809 0.99794,0.41186 1.93074,-0.59003 1.21543,-1.30534 -0.1497,-0.14971 -0.32098,-0.24101 -0.49403,-0.28112 z m -41.52976,0.56792 c -0.68364,0 -0.98299,0.59051 -0.68885,1.35702 0.09,0.23457 0.40051,0.36493 0.75034,0.31523 0.46756,-0.0664 0.59635,-0.25632 0.59635,-0.8785 0,-0.66911 -0.1033,-0.79375 -0.65784,-0.79375 z m 66.93596,0.26458 c -0.49587,0 -0.68395,0.15805 -0.75085,0.63149 -0.0491,0.34734 0.0699,0.73239 0.26458,0.85576 0.19463,0.12337 0.41347,0.22479 0.48627,0.22479 0.45164,0 0.82726,-0.54059 0.75086,-1.08055 -0.0669,-0.47344 -0.25499,-0.63149 -0.75086,-0.63149 z m -84.819624,1.53789 c -0.633474,-0.003 -1.164305,0.74177 -0.628385,1.38752 0.41139,0.4957 1.023393,0.40522 1.409733,-0.20826 0.2219,-0.35238 0.187615,-0.55911 -0.149345,-0.89607 -0.198153,-0.19815 -0.420845,-0.28229 -0.632003,-0.28319 z m -24.832593,2.86908 c -0.71267,-0.13725 -1.269306,0.67357 -0.915706,1.33429 h 5.17e-4 c 0.16912,0.316 0.49086,0.47743 0.84956,0.42633 0.78451,-0.11169 0.840429,-1.61141 0.06563,-1.76062 z m 65.624937,0.0124 c -0.64372,0.0924 -0.86889,0.86433 -0.41238,1.41439 0.44971,0.54187 0.97996,0.4766 1.32188,-0.16227 0.37114,-0.69349 -0.11752,-1.36584 -0.9095,-1.25212 z m 37.38738,8.54522 c -0.64783,0 -0.94845,0.60398 -0.66663,1.33842 0.19481,0.50768 1.06994,0.48566 1.50431,-0.0377 0.47002,-0.56633 -0.003,-1.30069 -0.83768,-1.30069 z m -51.83301,1.32291 c -0.49587,0 -0.68396,0.15805 -0.75086,0.63149 -0.0491,0.34734 0.07,0.73449 0.26458,0.8599 0.65659,0.42308 1.14774,0.12287 1.14774,-0.70125 0,-0.66641 -0.10357,-0.79014 -0.66146,-0.79014 z m -40.743251,1.85054 c -0.30517,0.1886 -0.360782,1.27478 -0.07958,1.55597 0.10316,0.10324 0.430574,0.15309 0.727604,0.11059 0.77527,-0.11097 0.902384,-1.42393 0.160714,-1.65933 -0.2982,-0.0945 -0.661916,-0.0979 -0.808736,-0.007 z m 63.765621,6.61613 c -0.68264,0 -0.98298,0.59051 -0.68885,1.35702 0.09,0.23457 0.40052,0.36493 0.75034,0.31523 0.46756,-0.0664 0.59635,-0.25632 0.59635,-0.8785 0,-0.66911 -0.1033,-0.79375 -0.65784,-0.79375 z m 39.15833,0.52917 c -0.68364,0 -0.98299,0.59052 -0.68885,1.35702 0.09,0.23458 0.40051,0.36493 0.75034,0.31523 0.46756,-0.0664 0.59635,-0.25632 0.59635,-0.8785 0,-0.66911 -0.1033,-0.79375 -0.65784,-0.79375 z m -109.591244,3.18068 c -0.601733,-0.23859 -1.416794,0.31426 -1.149801,1.15549 0.09752,0.30727 0.392881,0.55862 0.656291,0.55862 0.62263,0 1.174967,-0.67515 0.976167,-1.19321 -0.105187,-0.27411 -0.28208,-0.44137 -0.482657,-0.5209 z m 34.978743,0.78807 c -0.68364,0 -0.982987,0.59052 -0.688847,1.35702 0.09001,0.23458 0.400512,0.36493 0.750342,0.31523 0.46756,-0.0664 0.596346,-0.25632 0.596346,-0.8785 0,-0.66911 -0.103301,-0.79375 -0.657841,-0.79375 z m 19.457211,6.01978 c -0.25788,-0.005 -0.50734,0.14853 -0.67593,0.46354 -0.22702,0.4241 -0.22348,0.65535 0.0145,0.94206 0.73803,0.88929 2.00115,0.0595 1.38906,-0.9126 -0.20322,-0.32274 -0.46972,-0.48763 -0.7276,-0.493 z m 24.29516,1.85674 c -0.61476,0.0169 -1.1402,0.76833 -0.62632,1.38751 0.17962,0.21643 0.54222,0.39326 0.80563,0.39326 0.65741,0 0.94245,-1.00833 0.42995,-1.52084 -0.18965,-0.18964 -0.40434,-0.26557 -0.60926,-0.25993 z" /></g></svg>
